<?xml version="1.0" encoding="UTF-8" standalone="no"?>
<svg
   xmlns:dc="http://purl.org/dc/elements/1.1/"
   xmlns:cc="http://creativecommons.org/ns#"
   xmlns:rdf="http://www.w3.org/1999/02/22-rdf-syntax-ns#"
   xmlns:svg="http://www.w3.org/2000/svg"
   xmlns="http://www.w3.org/2000/svg"
   xmlns:sodipodi="http://sodipodi.sourceforge.net/DTD/sodipodi-0.dtd"
   xmlns:inkscape="http://www.inkscape.org/namespaces/inkscape"
   version="1.1"
   x="0px"
   y="0px"
   viewBox="0 0 97.421307 128.87626"
   enable-background="new 0 0 100 100"
   xml:space="preserve"
   id="svg2"
   inkscape:version="0.48.2 r9819"
   width="100%"
   height="100%"
   sodipodi:docname="factory.svg"><metadata
     id="metadata12"><rdf:RDF><cc:Work
         rdf:about=""><dc:format>image/svg+xml</dc:format><dc:type
           rdf:resource="http://purl.org/dc/dcmitype/StillImage" /><dc:title></dc:title></cc:Work></rdf:RDF></metadata><defs
     id="defs10" /><sodipodi:namedview
     pagecolor="#ffffff"
     bordercolor="#666666"
     borderopacity="1"
     objecttolerance="10"
     gridtolerance="10"
     guidetolerance="10"
     inkscape:pageopacity="0"
     inkscape:pageshadow="2"
     inkscape:window-width="1638"
     inkscape:window-height="1006"
     id="namedview8"
     showgrid="false"
     fit-margin-top="0"
     fit-margin-left="0"
     fit-margin-right="0"
     fit-margin-bottom="0"
     inkscape:zoom="4.748741"
     inkscape:cx="48.815944"
     inkscape:cy="82.96936"
     inkscape:window-x="42"
     inkscape:window-y="59"
     inkscape:window-maximized="1"
     inkscape:current-layer="svg2" /><path
     style="fill:#860eff;fill-opacity:1;stroke:none"
     inkscape:connector-curvature="0"
     id="path11"
     d="m 29.999804,35.330907 c 4.147478,0 7.51005,-3.166862 7.51005,-7.073594 0,-3.906547 -3.362376,-7.073596 -7.51005,-7.073596 -4.147674,0 -7.509854,3.16705 -7.509854,7.073596 0,3.906732 3.362376,7.073594 7.509854,7.073594 z m 0,-24.748686 c -10.363598,0 -18.764828,7.91336 -18.764828,17.674906 0,4.747237 1.987464,9.056894 5.220622,12.232281 0.925104,-1.40245 2.202564,-2.738547 3.963948,-3.763093 -2.207466,-2.214415 -3.561984,-5.192048 -3.561984,-8.469188 0,-6.836735 5.88396,-12.378884 13.142242,-12.378884 7.258478,0 13.142242,5.54215 13.142242,12.378884 0,3.284368 -1.3604,6.267562 -3.576298,8.483458 1.758444,1.028068 3.032374,2.367317 3.95434,3.771991 3.247472,-3.1778 5.24474,-7.496536 5.24474,-12.255449 0,-9.76136 -8.40123,-17.674906 -18.765024,-17.674906 z m 0,-10.58222 C 13.431264,1e-6 0,12.651331 0,28.257313 c 0,10.184486 5.721214,19.109231 14.300682,24.082211 -0.17078,-1.22434 -0.280198,-2.53838 -0.280198,-3.89969 0,0 -0.0082,-1.05216 0.292158,-2.57174 C 8.98202,41.65092 5.592782,35.327386 5.592782,28.257312 5.592782,15.560574 16.520108,5.268036 30,5.268036 c 13.479892,0 24.407414,10.292538 24.407414,22.989276 0,7.085086 -3.403748,13.420482 -8.753978,17.637652 0.294708,1.50494 0.286864,2.54469 0.286864,2.54469 0,1.37057 -0.11058,2.69332 -0.283336,3.92452 C 54.260158,47.396384 60,38.458665 60,28.257312 59.999804,12.651144 46.568344,0 29.999804,0 z"
     sodipodi:nodetypes="sssssscsccsssccscccscccssscccccc" /><polygon
     clip-rule="evenodd"
     points="33.928,46.787 14.642,46.787 17.856,5 30.714,5 "
     id="polygon4"
     style="fill-rule:evenodd"
     transform="translate(5.634311,33.876268)" /><path
     clip-rule="evenodd"
     d="m 13.847311,83.874264 h 28.574 l 27.5,-27.5 v 27.5 l 27.499996,-27.5 V 128.87626 H 13.847311 V 83.874264 l 0,0 z m 38.573,16.472996 v 12.857 h 12.857 v -12.857 h -12.857 l 0,0 z m 19.285996,0 v 12.857 h 12.858 v -12.857 h -12.858 z"
     id="path6"
     inkscape:connector-curvature="0"
     style="fill-rule:evenodd" /></svg>